<?xml version="1.0" encoding="UTF-8" standalone="no"?><!DOCTYPE svg PUBLIC "-//W3C//DTD SVG 1.1//EN" "http://www.w3.org/Graphics/SVG/1.1/DTD/svg11.dtd"><svg width="100%" height="100%" viewBox="0 0 2188 454" version="1.1" xmlns="http://www.w3.org/2000/svg" xmlns:xlink="http://www.w3.org/1999/xlink" xml:space="preserve" xmlns:serif="http://www.serif.com/" style="fill-rule:evenodd;clip-rule:evenodd;stroke-linejoin:round;stroke-miterlimit:2;"><g><text x="-65.613px" y="436.505px" style="font-family:'Syncopate-Regular', 'Syncopate';font-stretch:expanded;font-size:625px;fill:#fff;">Disc</text><path d="M2178.81,219.078c-0.013,-0.474 -0.021,-0.948 -0.035,-1.421c-0.032,-1.139 -0.074,-2.277 -0.125,-3.415c-0.042,-0.957 -0.091,-1.914 -0.148,-2.869c-0.038,-0.663 -0.075,-1.326 -0.119,-1.988c-0.066,-1.01 -0.142,-2.017 -0.222,-3.024c-0.002,-0.023 -0.004,-0.046 -0.006,-0.069c-3.969,-49.427 -24.86,-95.36 -59.85,-130.821c-39.049,-39.577 -90.968,-61.373 -146.19,-61.373c-55.237,0 -107.166,21.796 -146.221,61.372c-35.735,36.212 -56.768,83.348 -60.084,133.975c-0.04,0.584 -0.072,1.169 -0.106,1.754c-0.059,1.034 -0.115,2.069 -0.16,3.106c-0.049,1.115 -0.09,2.23 -0.12,3.347c-0.013,0.475 -0.025,0.952 -0.035,1.428c-0.032,1.514 -0.055,3.029 -0.055,4.544c-0,1.519 0.022,3.035 0.055,4.551c0.01,0.473 0.022,0.945 0.035,1.42c0.031,1.133 0.072,2.269 0.123,3.402c0.042,0.978 0.094,1.949 0.149,2.923c0.038,0.645 0.074,1.292 0.117,1.937c0.067,1.018 0.142,2.036 0.224,3.05c-0,0.005 0,0.01 0,0.016c3.961,49.453 24.856,95.407 59.858,130.872c39.052,39.566 90.98,61.36 146.22,61.36c55.226,-0 107.145,-21.792 146.192,-61.36c34.947,-35.417 55.83,-81.285 59.835,-130.651c0.01,-0.105 0.018,-0.209 0.026,-0.314c0.078,-0.97 0.149,-1.937 0.213,-2.91c0.049,-0.72 0.09,-1.445 0.128,-2.166c0.053,-0.896 0.099,-1.79 0.137,-2.687c0.055,-1.159 0.093,-2.317 0.128,-3.477c0.013,-0.469 0.022,-0.94 0.034,-1.408c0.031,-1.517 0.055,-3.036 0.055,-4.556c0.002,-1.517 -0.02,-3.033 -0.053,-4.548Zm-243.551,-189.022c-11.717,10.719 -22.359,26.656 -31.347,47.293c-3.893,8.94 -7.383,18.551 -10.456,28.708c-28.385,1.646 -56.031,4.207 -82.775,7.652c28.415,-42.707 72.891,-73.569 124.578,-83.653Zm-157.466,183.822c0.021,-0.431 0.048,-0.862 0.072,-1.292c0.055,-1.005 0.118,-2.007 0.188,-3.007c0.039,-0.549 0.074,-1.1 0.117,-1.65c0.092,-1.177 0.197,-2.351 0.31,-3.523c0.072,-0.741 0.149,-1.482 0.229,-2.223c0.062,-0.581 0.129,-1.16 0.196,-1.738c0.165,-1.419 0.346,-2.834 0.54,-4.247c0.053,-0.38 0.103,-0.76 0.158,-1.14c0.131,-0.91 0.268,-1.819 0.412,-2.727c0.033,-0.209 0.069,-0.417 0.102,-0.626c0.274,-1.695 0.569,-3.384 0.887,-5.07c0.064,-0.337 0.127,-0.675 0.192,-1.012c0.512,-2.648 1.08,-5.284 1.698,-7.906c0.157,-0.666 0.317,-1.331 0.481,-1.995c0.15,-0.605 0.297,-1.21 0.452,-1.813c0.322,-1.254 0.656,-2.502 1.002,-3.745c0.092,-0.333 0.187,-0.666 0.282,-0.999c4.185,-14.731 10.029,-28.753 17.304,-41.859c28.166,-3.894 57.414,-6.762 87.503,-8.61c-7.675,29.762 -11.968,63.513 -12.419,98.733l-99.839,-0c0.036,-1.186 0.076,-2.37 0.133,-3.551Zm5.941,59.122c-0.05,-0.197 -0.097,-0.391 -0.146,-0.588c-0.295,-1.171 -0.576,-2.346 -0.851,-3.526c-0.096,-0.411 -0.193,-0.821 -0.286,-1.233c-0.274,-1.21 -0.534,-2.427 -0.785,-3.646c-0.128,-0.623 -0.251,-1.246 -0.373,-1.87c-0.143,-0.728 -0.28,-1.458 -0.415,-2.191c-0.188,-1.02 -0.369,-2.047 -0.542,-3.073c-0.124,-0.734 -0.246,-1.469 -0.362,-2.208c-0.115,-0.736 -0.226,-1.473 -0.333,-2.211c-0.102,-0.706 -0.198,-1.411 -0.293,-2.119c-0.141,-1.046 -0.274,-2.092 -0.398,-3.142c-0.089,-0.763 -0.178,-1.529 -0.259,-2.294c-0.069,-0.648 -0.137,-1.297 -0.2,-1.945c-0.118,-1.228 -0.228,-2.457 -0.324,-3.692c-0.039,-0.495 -0.071,-0.99 -0.106,-1.486c-0.075,-1.059 -0.142,-2.121 -0.2,-3.187c-0.021,-0.396 -0.046,-0.793 -0.065,-1.191c-0.058,-1.191 -0.098,-2.382 -0.135,-3.578l99.84,-0c0.451,35.239 4.746,69.003 12.427,98.772c-30.181,-1.852 -59.433,-4.732 -87.509,-8.647c-8.111,-14.603 -14.446,-30.351 -18.685,-46.945Zm26.955,60.556c26.666,3.459 54.313,6.028 82.774,7.677c3.073,10.147 6.559,19.749 10.449,28.681c8.985,20.632 19.625,36.564 31.341,47.279c-51.678,-10.083 -96.147,-40.938 -124.564,-83.637Zm155.317,86.613c-18.697,-3.557 -36.974,-23.251 -50.917,-55.265c-3.146,-7.221 -6.017,-14.909 -8.608,-22.99c19.502,0.934 39.364,1.441 59.525,1.527l0,76.728Zm0,-89.122c-21.454,-0.092 -42.559,-0.669 -63.246,-1.727c-8.057,-29.645 -12.572,-63.743 -13.04,-99.498l76.286,0l0,101.225Zm0,-113.619l-76.286,-0c0.468,-35.735 4.98,-69.819 13.032,-99.457c20.728,-1.062 41.836,-1.641 63.254,-1.734l0,101.191Zm0,-113.585c-20.131,0.087 -39.996,0.595 -59.533,1.532c2.593,-8.09 5.467,-15.787 8.616,-23.017c13.944,-32.021 32.22,-51.719 50.917,-55.276l0,76.761Zm167.52,9.867c-26.743,-3.445 -54.388,-6.006 -82.776,-7.653c-3.073,-10.156 -6.561,-19.767 -10.452,-28.706c-8.984,-20.639 -19.623,-36.576 -31.337,-47.296c51.68,10.082 96.152,40.946 124.565,83.655Zm-155.301,-86.627c18.689,3.559 36.957,23.256 50.896,55.275c3.147,7.231 6.019,14.927 8.612,23.017c-19.528,-0.937 -39.384,-1.446 -59.508,-1.532l0,-76.76Zm0,89.154c21.409,0.092 42.509,0.671 63.226,1.734c8.05,29.637 12.561,63.721 13.029,99.457l-76.255,-0l0,-101.191Zm-0.001,113.585l76.256,0c-0.468,35.756 -4.981,69.854 -13.038,99.499c-20.675,1.058 -41.772,1.635 -63.218,1.726l-0,-101.225Zm0.001,190.347l0,-76.728c20.154,-0.086 40.007,-0.593 59.5,-1.525c-2.591,8.08 -5.461,15.768 -8.604,22.989c-13.937,32.013 -32.206,51.706 -50.896,55.264Zm30.742,-2.974c11.711,-10.716 22.349,-26.651 31.331,-47.281c3.888,-8.932 7.372,-18.534 10.444,-28.68c28.464,-1.648 56.111,-4.218 82.773,-7.678c-28.412,42.7 -72.876,73.557 -124.548,83.639Zm157.438,-183.772c-0.019,0.37 -0.043,0.74 -0.062,1.11c-0.06,1.115 -0.13,2.225 -0.209,3.333c-0.032,0.451 -0.061,0.903 -0.096,1.35c-0.097,1.279 -0.211,2.557 -0.337,3.83c-0.055,0.571 -0.115,1.143 -0.175,1.715c-0.096,0.924 -0.201,1.844 -0.311,2.764c-0.091,0.748 -0.182,1.495 -0.28,2.238c-0.128,0.972 -0.261,1.938 -0.402,2.901c-0.089,0.603 -0.178,1.2 -0.272,1.801c-0.183,1.177 -0.375,2.351 -0.577,3.522c-0.084,0.476 -0.172,0.95 -0.258,1.426c-0.192,1.045 -0.386,2.085 -0.595,3.125c-0.08,0.408 -0.16,0.816 -0.241,1.223c-0.286,1.395 -0.583,2.786 -0.898,4.169c-0.034,0.15 -0.069,0.3 -0.104,0.45c-4.206,18.294 -10.942,35.613 -19.799,51.569c-28.072,3.917 -57.326,6.798 -87.51,8.648c7.677,-29.769 11.971,-63.535 12.421,-98.773l99.84,0c-0.037,1.201 -0.078,2.402 -0.135,3.599Zm-99.705,-15.995c-0.453,-35.221 -4.744,-68.972 -12.417,-98.733c30.092,1.847 59.339,4.716 87.506,8.611c7.349,13.243 13.244,27.421 17.437,42.321c0.017,0.055 0.031,0.11 0.047,0.165c0.409,1.451 0.796,2.91 1.173,4.374c0.075,0.296 0.147,0.593 0.221,0.889c0.264,1.048 0.515,2.099 0.761,3.154c0.114,0.491 0.232,0.981 0.342,1.473c0.262,1.16 0.512,2.324 0.753,3.492c0.14,0.683 0.273,1.368 0.409,2.053c0.126,0.643 0.246,1.288 0.366,1.932c0.216,1.166 0.42,2.334 0.616,3.505c0.104,0.621 0.207,1.242 0.306,1.865c0.124,0.773 0.237,1.548 0.35,2.323c0.092,0.638 0.179,1.277 0.265,1.917c0.154,1.12 0.294,2.241 0.426,3.365c0.086,0.727 0.17,1.455 0.247,2.184c0.071,0.666 0.141,1.332 0.204,2c0.118,1.216 0.227,2.435 0.321,3.657c0.04,0.507 0.072,1.015 0.108,1.521c0.073,1.047 0.14,2.095 0.2,3.146c0.02,0.404 0.047,0.809 0.066,1.214c0.056,1.188 0.096,2.379 0.133,3.572l-99.84,-0Z" style="fill:#fffbfb;fill-rule:nonzero;stroke:#fff;stroke-width:9.67px;"/></g></svg>